<svg width="40" height="17" viewBox="0 0 40 17" fill="none" xmlns="http://www.w3.org/2000/svg">
<path d="M7.16755 2.34752C6.7078 2.89155 5.97221 3.32065 5.23661 3.25935C5.14466 2.52375 5.5048 1.74218 5.92623 1.25945C6.38598 0.700093 7.19053 0.301646 7.84184 0.270996C7.91847 1.03724 7.61963 1.78816 7.16755 2.34752ZM7.83418 3.40493C6.7691 3.34363 5.85727 4.01027 5.35155 4.01027C4.83817 4.01027 4.06426 3.43558 3.22139 3.45091C2.12566 3.46623 1.10656 4.08689 0.547201 5.07535C-0.602164 7.05225 0.248366 9.97931 1.35942 11.5884C1.90345 12.3853 2.55476 13.2588 3.41295 13.2282C4.22517 13.1975 4.54699 12.6995 5.52778 12.6995C6.51624 12.6995 6.79975 13.2282 7.65794 13.2129C8.54678 13.1975 9.10614 12.416 9.65018 11.6191C10.2708 10.7149 10.5237 9.83372 10.539 9.78774C10.5237 9.77242 8.82263 9.12111 8.80731 7.15953C8.79198 5.51977 10.1482 4.7382 10.2095 4.69222C9.44329 3.55818 8.24795 3.43558 7.83418 3.40493ZM13.9871 1.18283V13.1286H15.8414V9.04449H18.4083C20.753 9.04449 22.4005 7.43538 22.4005 5.10599C22.4005 2.77661 20.7837 1.18283 18.4696 1.18283H13.9871ZM15.8414 2.74596H17.9792C19.5884 2.74596 20.5078 3.60416 20.5078 5.11366C20.5078 6.62316 19.5884 7.48901 17.9716 7.48901H15.8414V2.74596ZM25.7873 13.2205C26.952 13.2205 28.0324 12.6305 28.5228 11.6957H28.5611V13.1286H30.2775V7.18252C30.2775 5.45847 28.8982 4.34741 26.7757 4.34741C24.8065 4.34741 23.3506 5.47379 23.297 7.0216H24.9674C25.1053 6.28601 25.7873 5.80328 26.7221 5.80328C27.8561 5.80328 28.4921 6.33199 28.4921 7.30511V7.96408L26.178 8.10201C24.0249 8.23227 22.8602 9.11345 22.8602 10.6459C22.8602 12.1938 24.0632 13.2205 25.7873 13.2205ZM26.2853 11.803C25.2969 11.803 24.6686 11.3279 24.6686 10.6C24.6686 9.84904 25.2739 9.41229 26.4309 9.34332L28.4921 9.21306V9.88736C28.4921 11.0061 27.542 11.803 26.2853 11.803ZM32.5685 16.3774C34.3769 16.3774 35.2274 15.6878 35.9706 13.596L39.2272 4.46235H37.3422L35.1584 11.5195H35.1201L32.9363 4.46235H30.9977L34.1393 13.1592L33.9707 13.6879C33.6872 14.5844 33.2275 14.9292 32.4076 14.9292C32.262 14.9292 31.9785 14.9139 31.8636 14.8986V16.3315C31.9709 16.3621 32.4306 16.3774 32.5685 16.3774Z" fill="white"/>
</svg>
