<svg width="41" height="17" viewBox="0 0 41 17" fill="none" xmlns="http://www.w3.org/2000/svg">
<path d="M18.9297 8.21046V12.8301H17.4517V1.42167H21.3717C21.8396 1.41197 22.3049 1.49426 22.7406 1.66377C23.1762 1.83329 23.5737 2.08667 23.9101 2.40931C24.2499 2.71236 24.5204 3.08401 24.7032 3.4993C24.8861 3.91458 24.9773 4.36387 24.9705 4.81697C24.9802 5.2725 24.8905 5.72472 24.7075 6.14265C24.5245 6.56058 24.2525 6.93434 23.9101 7.23829C23.2247 7.8864 22.3785 8.21016 21.3717 8.20955H18.9297V8.21046ZM18.9297 2.82621V6.80864H21.4085C21.6802 6.81663 21.9506 6.76829 22.2025 6.66672C22.4543 6.56516 22.6819 6.41259 22.8709 6.21879C23.0589 6.03759 23.2083 5.82086 23.3103 5.58141C23.4123 5.34196 23.4649 5.08465 23.4649 4.82471C23.4649 4.56477 23.4123 4.30746 23.3103 4.06801C23.2083 3.82857 23.0589 3.61183 22.8709 3.43063C22.6843 3.23275 22.4574 3.07644 22.2053 2.97208C21.9532 2.86772 21.6816 2.81769 21.4085 2.8253H18.9297V2.82621ZM28.3764 4.76964C29.4689 4.76964 30.3313 5.0591 30.9635 5.63804C31.5957 6.21697 31.9115 7.01072 31.9109 8.0193V12.8301H30.4971V11.7469H30.4329C29.8208 12.6389 29.0068 13.085 27.9909 13.085C27.1236 13.085 26.398 12.8301 25.8142 12.3203C25.534 12.0864 25.3099 11.7934 25.1584 11.4627C25.0069 11.132 24.9317 10.7719 24.9384 10.4088C24.9384 9.60105 25.2462 8.9587 25.8619 8.48172C26.4776 8.00474 27.2996 7.76564 28.3278 7.76443C29.2054 7.76443 29.9283 7.92372 30.4962 8.24232V7.90734C30.4979 7.65976 30.444 7.41492 30.3384 7.19056C30.2328 6.96621 30.0782 6.76796 29.8857 6.61021C29.4949 6.26055 28.9855 6.06977 28.4591 6.07588C27.6334 6.07588 26.9801 6.42117 26.499 7.11176L25.1972 6.29889C25.9133 5.27939 26.9731 4.76964 28.3764 4.76964ZM26.4641 10.4406C26.4632 10.6271 26.5071 10.8112 26.5924 10.9774C26.6777 11.1437 26.8018 11.2873 26.9544 11.3964C27.2813 11.6514 27.687 11.7864 28.1029 11.7787C28.7266 11.7777 29.3245 11.5315 29.7655 11.0942C30.2551 10.6372 30.4999 10.1011 30.4999 9.48575C30.039 9.12164 29.3964 8.93959 28.572 8.93959C27.9716 8.93959 27.4709 9.08311 27.0701 9.37014C26.6652 9.66143 26.4641 10.0155 26.4641 10.4406ZM40.0265 5.02451L35.0911 16.2709H33.5653L35.3968 12.3358L32.1515 5.02451H33.758L36.1037 10.6318H36.1358L38.4171 5.02451H40.0265Z" fill="white"/>
<path d="M12.9568 7.21472C12.9573 6.76809 12.9193 6.32225 12.8429 5.88208H6.60938V8.40626H10.1797C10.1066 8.80941 9.95198 9.19371 9.7251 9.53601C9.49821 9.8783 9.20377 10.1715 8.85952 10.3979V12.0364H10.9903C12.2379 10.8958 12.9568 9.20912 12.9568 7.21472Z" fill="#4285F4"/>
<path d="M6.60991 13.6194C8.39368 13.6194 9.89561 13.0386 10.9908 12.0374L8.86005 10.3989C8.26699 10.7976 7.50318 11.0251 6.60991 11.0251C4.88582 11.0251 3.42245 9.87274 2.89916 8.31982H0.704102V10.0084C1.25426 11.0938 2.09786 12.0063 3.14073 12.644C4.18361 13.2816 5.3847 13.6193 6.60991 13.6194Z" fill="#34A853"/>
<path d="M2.8989 8.32006C2.62226 7.50632 2.62226 6.6251 2.8989 5.81136V4.1228H0.703843C0.241032 5.03594 0 6.04375 0 7.06571C0 8.08767 0.241032 9.09547 0.703843 10.0086L2.8989 8.32006Z" fill="#FBBC04"/>
<path d="M6.60991 3.10593C7.55255 3.09066 8.46339 3.4438 9.14556 4.08902L11.0322 2.21842C9.83586 1.10432 8.25103 0.492655 6.60991 0.51166C5.38469 0.511716 4.1836 0.84942 3.14073 1.48707C2.09786 2.12472 1.25426 3.03723 0.704102 4.1227L2.89916 5.81125C3.42244 4.25833 4.88581 3.10593 6.60991 3.10593Z" fill="#EA4335"/>
</svg>
