<svg width="31" height="19" viewBox="0 0 31 19" fill="none" xmlns="http://www.w3.org/2000/svg">
<path d="M19.4692 2.18604H11.5298V16.268H19.4692V2.18604Z" fill="#FF5F00"/>
<path d="M12.0344 9.22858C12.033 7.8722 12.3442 6.53327 12.9447 5.31318C13.5451 4.09309 14.4189 3.02383 15.5 2.18638C14.1615 1.14814 12.5539 0.502515 10.8612 0.323303C9.16839 0.144092 7.45869 0.43852 5.92745 1.17294C4.39621 1.90736 3.10521 3.05213 2.202 4.47643C1.2988 5.90073 0.819824 7.54709 0.819824 9.22734C0.819824 10.9076 1.2988 12.5539 2.202 13.9782C3.10521 15.4025 4.39621 16.5473 5.92745 17.2817C7.45869 18.0162 9.16839 18.3106 10.8612 18.1314C12.5539 17.9522 14.1615 17.3065 15.5 16.2683C14.4193 15.4311 13.5456 14.3622 12.9452 13.1426C12.3448 11.923 12.0333 10.5845 12.0344 9.22858V9.22858Z" fill="#EB001B"/>
<path d="M30.1815 9.2284C30.1815 10.9088 29.7024 12.5552 28.799 13.9796C27.8957 15.4039 26.6045 16.5487 25.0731 17.283C23.5416 18.0173 21.8317 18.3116 20.1389 18.1321C18.446 17.9526 16.8385 17.3067 15.5 16.2681C16.5803 15.4302 17.4537 14.361 18.0543 13.1413C18.6549 11.9216 18.9669 10.5832 18.9669 9.22715C18.9669 7.87106 18.6549 6.53268 18.0543 5.31298C17.4537 4.09328 16.5803 3.02413 15.5 2.18619C16.8385 1.14763 18.446 0.501691 20.1389 0.322222C21.8317 0.142753 23.5416 0.436992 25.0731 1.17131C26.6045 1.90562 27.8957 3.05038 28.799 4.47472C29.7024 5.89907 30.1815 7.54553 30.1815 9.22591V9.2284Z" fill="#F79E1B"/>
</svg>
