<svg width="41" height="13" viewBox="0 0 41 13" fill="none" xmlns="http://www.w3.org/2000/svg">
<path d="M17.8431 12.071H14.5792L16.6191 0.478144H19.8833L17.8431 12.071ZM11.8334 0.478144L8.72182 8.45179L8.35361 6.73475L8.35395 6.73537L7.2557 1.52195C7.2557 1.52195 7.12291 0.478144 5.70743 0.478144H0.563291L0.50293 0.674438C0.50293 0.674438 2.07602 0.977097 3.91704 1.9995L6.75269 12.0713H10.1534L15.3462 0.478144H11.8334ZM37.5055 12.071H40.5025L37.8895 0.477834H35.2658C34.0542 0.477834 33.7591 1.34178 33.7591 1.34178L28.8913 12.071H32.2936L32.974 10.349H37.1232L37.5055 12.071ZM33.914 7.9702L35.6289 3.63188L36.5937 7.9702H33.914ZM29.1465 3.26596L29.6122 0.776461C29.6122 0.776461 28.175 0.270996 26.6767 0.270996C25.057 0.270996 21.2106 0.92562 21.2106 4.10881C21.2106 7.10377 25.725 7.14099 25.725 8.71413C25.725 10.2873 21.6757 10.0054 20.3394 9.01338L19.8541 11.6164C19.8541 11.6164 21.3115 12.271 23.5382 12.271C25.7655 12.271 29.1257 11.2046 29.1257 8.30201C29.1257 5.28782 24.5707 5.00718 24.5707 3.69669C24.5711 2.38589 27.7498 2.55427 29.1465 3.26596Z" fill="#2566AF"/>
<path d="M8.35395 6.73501L7.2557 1.52158C7.2557 1.52158 7.12291 0.477783 5.70743 0.477783H0.563291L0.50293 0.674077C0.50293 0.674077 2.9754 1.14791 5.34694 2.92324C7.61452 4.62012 8.35395 6.73501 8.35395 6.73501Z" fill="#E6A540"/>
</svg>
